<svg width="40" height="40" viewBox="0 0 40 40" fill="none" xmlns="http://www.w3.org/2000/svg">
<path d="M29.1807 28.1797C29.1807 28.3786 29.1016 28.5694 28.961 28.71C28.8203 28.8507 28.6296 28.9297 28.4307 28.9297H10.4307C10.2318 28.9297 10.041 28.8507 9.90033 28.71C9.75968 28.5694 9.68066 28.3786 9.68066 28.1797C9.68066 27.9808 9.75968 27.79 9.90033 27.6494C10.041 27.5087 10.2318 27.4297 10.4307 27.4297H11.1807V21.4297C11.1807 21.2308 11.2597 21.04 11.4003 20.8994C11.541 20.7587 11.7318 20.6797 11.9307 20.6797H14.1807C14.3796 20.6797 14.5703 20.7587 14.711 20.8994C14.8516 21.04 14.9307 21.2308 14.9307 21.4297V27.4297H16.4307V16.9297C16.4307 16.7308 16.5097 16.54 16.6503 16.3994C16.791 16.2587 16.9818 16.1797 17.1807 16.1797H20.1807C20.3796 16.1797 20.5703 16.2587 20.711 16.3994C20.8516 16.54 20.9307 16.7308 20.9307 16.9297V27.4297H22.4307V12.4297C22.4307 12.2308 22.5097 12.04 22.6503 11.8994C22.791 11.7587 22.9818 11.6797 23.1807 11.6797H26.9307C27.1296 11.6797 27.3203 11.7587 27.461 11.8994C27.6016 12.04 27.6807 12.2308 27.6807 12.4297V27.4297H28.4307C28.6296 27.4297 28.8203 27.5087 28.961 27.6494C29.1016 27.79 29.1807 27.9808 29.1807 28.1797Z" fill="white" fill-opacity="0.7"/>
</svg>
