<svg width="40" height="40" viewBox="0 0 40 40" fill="none" xmlns="http://www.w3.org/2000/svg">
<path d="M27.9746 14.6279H12.9746C12.7757 14.6279 12.5849 14.5489 12.4443 14.4083C12.3036 14.2676 12.2246 14.0768 12.2246 13.8779C12.2246 13.679 12.3036 13.4883 12.4443 13.3476C12.5849 13.2069 12.7757 13.1279 12.9746 13.1279H25.7246C25.9235 13.1279 26.1143 13.0489 26.2549 12.9083C26.3956 12.7676 26.4746 12.5768 26.4746 12.3779C26.4746 12.179 26.3956 11.9883 26.2549 11.8476C26.1143 11.7069 25.9235 11.6279 25.7246 11.6279H12.9746C12.3779 11.6279 11.8056 11.865 11.3836 12.2869C10.9617 12.7089 10.7246 13.2812 10.7246 13.8779V25.8779C10.7246 26.4747 10.9617 27.047 11.3836 27.4689C11.8056 27.8909 12.3779 28.1279 12.9746 28.1279H27.9746C28.3724 28.1279 28.754 27.9699 29.0353 27.6886C29.3166 27.4073 29.4746 27.0258 29.4746 26.6279V16.1279C29.4746 15.7301 29.3166 15.3486 29.0353 15.0673C28.754 14.786 28.3724 14.6279 27.9746 14.6279ZM24.5996 22.1279C24.3771 22.1279 24.1596 22.0619 23.9746 21.9383C23.7896 21.8147 23.6454 21.639 23.5602 21.4334C23.4751 21.2279 23.4528 21.0017 23.4962 20.7835C23.5396 20.5652 23.6468 20.3648 23.8041 20.2074C23.9614 20.0501 24.1619 19.943 24.3801 19.8995C24.5984 19.8561 24.8246 19.8784 25.0301 19.9636C25.2357 20.0487 25.4114 20.1929 25.535 20.3779C25.6586 20.5629 25.7246 20.7804 25.7246 21.0029C25.7246 21.3013 25.6061 21.5874 25.3951 21.7984C25.1841 22.0094 24.898 22.1279 24.5996 22.1279Z" fill="white" fill-opacity="0.7"/>
</svg>
