<svg width="25" height="25" viewBox="0 0 25 25" fill="none" xmlns="http://www.w3.org/2000/svg">
<path d="M22.7716 7.81098L20.3679 16.4622C20.2357 16.9348 19.9531 17.3514 19.5628 17.6488C19.1724 17.9463 18.6958 18.1083 18.2051 18.1104H8.93883C8.44667 18.1101 7.96809 17.9489 7.57608 17.6514C7.18406 17.3538 6.90013 16.9362 6.76758 16.4622L3.47883 4.61035H1.79883C1.59992 4.61035 1.40915 4.53133 1.2685 4.39068C1.12785 4.25003 1.04883 4.05926 1.04883 3.86035C1.04883 3.66144 1.12785 3.47067 1.2685 3.33002C1.40915 3.18937 1.59992 3.11035 1.79883 3.11035H4.04883C4.2128 3.11032 4.37226 3.16402 4.5028 3.26324C4.63335 3.36246 4.72778 3.50173 4.77164 3.65973L5.66039 6.86035H22.0488C22.1645 6.86033 22.2785 6.88704 22.3821 6.9384C22.4857 6.98975 22.576 7.06437 22.646 7.1564C22.716 7.24844 22.7637 7.35542 22.7855 7.46897C22.8073 7.58252 22.8026 7.69957 22.7716 7.81098ZM8.54883 19.6104C8.25216 19.6104 7.96215 19.6983 7.71547 19.8631C7.4688 20.028 7.27654 20.2622 7.16301 20.5363C7.04948 20.8104 7.01977 21.112 7.07765 21.403C7.13553 21.694 7.27839 21.9612 7.48817 22.171C7.69795 22.3808 7.96522 22.5237 8.25619 22.5815C8.54716 22.6394 8.84876 22.6097 9.12285 22.4962C9.39694 22.3826 9.63121 22.1904 9.79603 21.9437C9.96085 21.697 10.0488 21.407 10.0488 21.1104C10.0488 20.7125 9.89079 20.331 9.60949 20.0497C9.32818 19.7684 8.94665 19.6104 8.54883 19.6104ZM18.2988 19.6104C18.0022 19.6104 17.7121 19.6983 17.4655 19.8631C17.2188 20.028 17.0265 20.2622 16.913 20.5363C16.7995 20.8104 16.7698 21.112 16.8277 21.403C16.8855 21.694 17.0284 21.9612 17.2382 22.171C17.4479 22.3808 17.7152 22.5237 18.0062 22.5815C18.2972 22.6394 18.5988 22.6097 18.8729 22.4962C19.1469 22.3826 19.3812 22.1904 19.546 21.9437C19.7109 21.697 19.7988 21.407 19.7988 21.1104C19.7988 20.7125 19.6408 20.331 19.3595 20.0497C19.0782 19.7684 18.6967 19.6104 18.2988 19.6104Z" fill="white" fill-opacity="0.7"/>
</svg>
