<svg width="25" height="25" viewBox="0 0 25 25" fill="none" xmlns="http://www.w3.org/2000/svg">
<path d="M21.0603 10.6887L13.5603 3.18875C13.279 2.90766 12.8977 2.74976 12.5 2.74976C12.1024 2.74976 11.721 2.90766 11.4397 3.18875L3.9397 10.6887C3.79973 10.8277 3.68878 10.993 3.6133 11.1752C3.53782 11.3574 3.49931 11.5528 3.50001 11.75V20.75C3.50001 20.9489 3.57903 21.1397 3.71968 21.2803C3.86033 21.421 4.0511 21.5 4.25001 21.5H10.25C10.4489 21.5 10.6397 21.421 10.7803 21.2803C10.921 21.1397 11 20.9489 11 20.75V15.5H14V20.75C14 20.9489 14.079 21.1397 14.2197 21.2803C14.3603 21.421 14.5511 21.5 14.75 21.5H20.75C20.9489 21.5 21.1397 21.421 21.2803 21.2803C21.421 21.1397 21.5 20.9489 21.5 20.75V11.75C21.5007 11.5528 21.4622 11.3574 21.3867 11.1752C21.3112 10.993 21.2003 10.8277 21.0603 10.6887ZM20 20H15.5V14.75C15.5 14.5511 15.421 14.3603 15.2803 14.2197C15.1397 14.079 14.9489 14 14.75 14H10.25C10.0511 14 9.86033 14.079 9.71968 14.2197C9.57903 14.3603 9.50001 14.5511 9.50001 14.75V20H5.00001V11.75L12.5 4.25L20 11.75V20Z" fill="black" fill-opacity="0.5"/>
</svg>
