<svg width="33" height="33" viewBox="0 0 33 33" fill="none" xmlns="http://www.w3.org/2000/svg">
<path d="M8.56535 13.4769H6.73201C6.61046 13.4769 6.49388 13.4286 6.40792 13.3426C6.32197 13.2567 6.27368 13.1401 6.27368 13.0186V6.60189C6.27368 6.48033 6.32197 6.36375 6.40792 6.2778C6.49388 6.19184 6.61046 6.14355 6.73201 6.14355H8.56535C8.68691 6.14355 8.80349 6.19184 8.88944 6.2778C8.97539 6.36375 9.02368 6.48033 9.02368 6.60189V13.0186C9.02368 13.1401 8.97539 13.2567 8.88944 13.3426C8.80349 13.4286 8.68691 13.4769 8.56535 13.4769Z" fill="#A0041E"/>
<path d="M4.58325 14.6667L16.4999 2.75L28.4166 14.6667V30.25H4.58325V14.6667Z" fill="#FFE8B6"/>
<path d="M16.5 14.667H17.4167V29.3337H16.5V14.667Z" fill="#FFCC4D"/>
<path d="M28.4166 15.5838C28.1735 15.5837 27.9404 15.4871 27.7685 15.3152L16.4999 4.04662L5.23136 15.3152C5.14625 15.4003 5.04521 15.4678 4.93402 15.5139C4.82282 15.5599 4.70364 15.5836 4.58328 15.5836C4.46292 15.5836 4.34373 15.5599 4.23254 15.5139C4.12134 15.4678 4.0203 15.4003 3.93519 15.3152C3.85009 15.2301 3.78257 15.1291 3.73651 15.0179C3.69045 14.9067 3.66675 14.7875 3.66675 14.6671C3.66675 14.5468 3.69045 14.4276 3.73651 14.3164C3.78257 14.2052 3.85009 14.1041 3.93519 14.019L15.8519 2.10237C16.0238 1.93052 16.2569 1.83398 16.4999 1.83398C16.743 1.83398 16.9761 1.93052 17.148 2.10237L29.0647 14.019C29.1933 14.1471 29.281 14.3104 29.3166 14.4884C29.3522 14.6663 29.3341 14.8508 29.2647 15.0185C29.1952 15.1861 29.0776 15.3294 28.9266 15.43C28.7756 15.5307 28.5981 15.5842 28.4166 15.5838Z" fill="#66757F"/>
<path d="M16.5 15.5835C16.3186 15.5839 16.1411 15.5304 15.9901 15.4297C15.8391 15.3291 15.7214 15.1858 15.652 15.0182C15.5825 14.8505 15.5645 14.666 15.6001 14.4881C15.6357 14.3101 15.7234 14.1468 15.852 14.0188L21.8103 8.06044C21.8954 7.97533 21.9964 7.90782 22.1076 7.86176C22.2188 7.8157 22.338 7.79199 22.4584 7.79199C22.5787 7.79199 22.6979 7.8157 22.8091 7.86176C22.9203 7.90782 23.0214 7.97533 23.1065 8.06044C23.1916 8.14555 23.2591 8.24658 23.3051 8.35778C23.3512 8.46898 23.3749 8.58816 23.3749 8.70852C23.3749 8.82888 23.3512 8.94806 23.3051 9.05926C23.2591 9.17046 23.1916 9.2715 23.1065 9.3566L17.1481 15.3149C16.9763 15.4869 16.7431 15.5835 16.5 15.5835Z" fill="#66757F"/>
<path d="M9.16675 23.833H12.8334V29.333H9.16675V23.833Z" fill="#C1694F"/>
<path d="M9.16675 15.583H12.8334V19.2497H9.16675V15.583ZM20.6251 15.583H24.2917V19.2497H20.6251V15.583ZM20.6251 23.833H24.2917V27.4997H20.6251V23.833Z" fill="#55ACEE"/>
<path d="M30.7084 30.708C30.7084 31.0727 30.5635 31.4224 30.3057 31.6803C30.0478 31.9381 29.6981 32.083 29.3334 32.083H3.66675C3.30208 32.083 2.95234 31.9381 2.69448 31.6803C2.43661 31.4224 2.29175 31.0727 2.29175 30.708C2.29175 30.3433 2.43661 29.9936 2.69448 29.7357C2.95234 29.4779 3.30208 29.333 3.66675 29.333H29.3334C29.6981 29.333 30.0478 29.4779 30.3057 29.7357C30.5635 29.9936 30.7084 30.3433 30.7084 30.708Z" fill="#5C913B"/>
</svg>
