<svg width="33" height="33" viewBox="0 0 33 33" fill="none" xmlns="http://www.w3.org/2000/svg">
<path d="M4.93966 12.6178V7.36871L4.51685 7.39449V4.16152L8.59544 4.13574V7.31973H8.17263V10.4032L4.93966 12.6178Z" fill="#AB5832"/>
<path d="M16.5285 6.01465L4.81348 17.7864L4.90371 28.6686L28.0424 28.4495L28.0759 16.8479L16.5285 6.01465Z" fill="#FFF3E1"/>
<path d="M4.375 26.7586L5.18453 26.3126V17.5264L4.43172 18.0291C4.42914 18.0291 4.51422 26.7586 4.375 26.7586ZM27.6374 18.0007V26.2585L28.447 26.7045V18.3075L27.6374 18.0007Z" fill="#5F4E47"/>
<path d="M16.6083 7.27316L4.4292 18.6711V15.7964L16.6212 4.24902L28.447 16.4951V18.9211L16.6083 7.27316Z" fill="#BCAA93"/>
<path d="M3.23563 15.3039L2.52148 16.6213L4.43703 16.593C4.43703 16.593 16.3866 4.97078 16.6445 4.96047C16.9564 4.94758 28.442 16.7966 28.442 16.7966L30.1409 16.7709L17.3947 3.03977L15.523 2.91602L3.23563 15.3039Z" fill="#AB5832"/>
<path d="M1.03114 16.2908C0.83005 16.5357 1.02857 16.6646 1.19099 16.6646C1.35341 16.6646 3.22513 16.6105 3.22513 16.6105L16.1261 4.05758C16.1261 4.05758 16.4225 3.75336 16.634 3.76367C16.8634 3.77399 17.1599 4.06531 17.1599 4.06531L30.1227 16.7729C30.1227 16.7729 31.6 16.778 31.8346 16.7188C32.0898 16.6569 31.9609 16.4145 31.6464 16.0768C31.4143 15.8267 18.3097 2.86391 18.0932 2.63961C17.4486 1.97445 17.1341 1.58774 16.5257 1.61352C15.9147 1.6393 15.5537 2.09047 14.9427 2.6525C14.7622 2.82266 1.11622 16.1877 1.03114 16.2908Z" fill="#ED6C31"/>
<path d="M24.1054 20.8395H26.748V18.6403C26.748 18.5431 26.7288 18.4469 26.6917 18.3572C26.6545 18.2674 26.6 18.1858 26.5313 18.1171C26.4626 18.0484 26.381 17.9939 26.2912 17.9567C26.2015 17.9195 26.1052 17.9004 26.0081 17.9004H24.1054V20.8395ZM23.3113 20.8395V17.9004H21.2488C21.1517 17.9004 21.0555 17.9195 20.9657 17.9567C20.8759 17.9939 20.7944 18.0484 20.7256 18.1171C20.6569 18.1858 20.6024 18.2674 20.5652 18.3572C20.5281 18.4469 20.5089 18.5431 20.5089 18.6403V20.842H23.3113V20.8395ZM23.3113 21.6748H20.5089V23.7373C20.5089 23.9335 20.5869 24.1217 20.7256 24.2605C20.8644 24.3992 21.0526 24.4772 21.2488 24.4772H23.3113V21.6748ZM24.1054 21.6748V24.4772H26.0081C26.2043 24.4772 26.3925 24.3992 26.5313 24.2605C26.67 24.1217 26.748 23.9335 26.748 23.7373V21.6748H24.1054ZM9.47455 20.8395H12.1171V18.6403C12.1171 18.5431 12.098 18.4469 12.0608 18.3572C12.0236 18.2674 11.9691 18.1858 11.9004 18.1171C11.8317 18.0484 11.7501 17.9939 11.6604 17.9567C11.5706 17.9195 11.4744 17.9004 11.3772 17.9004H9.47455V20.8395ZM8.67791 20.8395V17.9004H6.61541C6.51824 17.9004 6.42203 17.9195 6.33225 17.9567C6.24248 17.9939 6.16091 18.0484 6.09221 18.1171C6.0235 18.1858 5.969 18.2674 5.93181 18.3572C5.89463 18.4469 5.87549 18.5431 5.87549 18.6403V20.842H8.67791V20.8395ZM8.67791 21.6748H5.87807V23.7373C5.87807 23.9335 5.95602 24.1217 6.09478 24.2605C6.23355 24.3992 6.42175 24.4772 6.61799 24.4772H8.68049V21.6748H8.67791ZM9.47455 21.6748V24.4772H11.3772C11.5734 24.4772 11.7616 24.3992 11.9004 24.2605C12.0392 24.1217 12.1171 23.9335 12.1171 23.7373V21.6748H9.47455Z" fill="#A6CFD5"/>
<path d="M12.9784 27.5161C12.9784 27.5161 12.9397 21.1378 12.9784 19.5265C13.017 17.9177 14.5278 16.5255 16.2784 16.5848C18.444 16.6596 19.5577 17.8765 19.6377 19.4466C19.7176 21.0166 19.7176 27.6141 19.7176 27.6141L12.9784 27.5161Z" fill="#D27857"/>
<path d="M13.7852 27.8613C13.7852 27.8613 13.7543 21.0654 13.7852 19.8073C13.8239 18.2475 14.9995 17.4277 16.3659 17.505C17.9566 17.5952 18.743 18.4409 18.8048 19.6706C18.8667 20.8978 18.8667 27.8665 18.8667 27.8665L13.7852 27.8613Z" fill="#AB5932"/>
<path d="M18.0443 22.3211C18.0392 21.2022 18.0289 20.2147 18.0134 19.9131C17.9721 19.101 17.3946 18.4693 16.2732 18.4307C15.3682 18.3997 14.6232 19.1061 14.6025 19.9389C14.5948 20.2457 14.5974 21.2099 14.6025 22.3082L18.0443 22.3211ZM14.6103 23.5766C14.6206 25.0745 14.6335 26.4538 14.6335 26.4538L18.0546 26.4641C18.0546 26.4641 18.0546 25.09 18.0495 23.5921L14.6103 23.5766Z" fill="#D27857"/>
<path d="M18.0547 22.8962C18.0418 23.2597 18.1888 23.5536 18.6193 23.5536C19.0499 23.5536 19.2071 23.3525 19.2381 22.9632C19.2639 22.6152 19.0241 22.3058 18.6193 22.3316C18.2171 22.3599 18.065 22.641 18.0547 22.8962Z" fill="#FFBA02"/>
<path d="M20.5246 29.9863C20.5246 29.9863 23.3296 30.0147 25.356 29.9554C27.3824 29.8961 28.8493 29.9863 29.151 29.6821C29.4526 29.3804 29.4475 26.81 28.0424 26.114C26.7507 25.4746 25.9154 26.1243 25.472 26.1681C24.8868 26.2274 24.1623 25.8639 23.6312 25.8536C21.4372 25.8072 20.6689 27.5319 20.6689 27.5319L20.5246 29.9863ZM3.74614 29.7749C3.98075 29.994 5.77254 30.0018 7.93559 29.9863C10.0986 29.9708 11.8389 29.9915 11.8389 29.9915L12.1998 27.8078L11.7615 27.4443C11.7615 27.4443 11.8105 26.3511 10.4312 25.9773C9.47731 25.7195 8.64715 26.1449 7.84536 26.1578C7.04356 26.1733 6.30364 25.8097 5.41161 26.0211C4.58145 26.2171 3.93434 26.7585 3.67137 27.8516C3.48832 28.6096 3.53473 29.5764 3.74614 29.7749Z" fill="#728037"/>
<path d="M11.5811 32.27L11.5991 29.9883H11.7667L11.7641 27.4463H20.7179L20.687 29.9883H20.8829V32.2107C20.8804 32.2081 11.5811 32.2829 11.5811 32.27Z" fill="#B0B0B0"/>
<path d="M20.8802 31.2729V32.2088L11.5784 32.2707L11.5861 31.2652L20.8802 31.2729ZM11.7614 28.999L20.6946 29.0016V29.9864H11.7614V28.999Z" fill="#9B9B9B"/>
</svg>
