<svg width="33" height="33" viewBox="0 0 33 33" fill="none" xmlns="http://www.w3.org/2000/svg">
<path d="M16.7063 2.2168H18.4594V5.56836H16.7063V2.2168Z" fill="#D0D0D0"/>
<path d="M18.4595 2.2168H19.6454V5.56836H18.4595V2.2168Z" fill="#94989B"/>
<path d="M16.0874 1.03125H19.0265V2.21719H16.0874V1.03125Z" fill="#D0D0D0"/>
<path d="M19.0266 1.03125H20.2125V2.21719H19.0266V1.03125Z" fill="#94989B"/>
<path d="M12.478 1.03125L1.39209 7.37344H23.6155L12.478 1.03125Z" fill="#ED4C5C"/>
<path d="M4.5376 7.37305H20.4704V17.1699H4.5376V7.37305Z" fill="#F9F3D9"/>
<path d="M10.5188 10.3125H14.4891V14.2828H10.5188V10.3125Z" fill="#D6EEF0"/>
<path d="M10.0032 9.79688V14.7469H14.9532V9.79688H10.0032ZM14.4891 10.3125V12.0656H12.736V10.3125H14.4891ZM12.2719 10.3125V12.0656H10.5188V10.3125H12.2719ZM10.5188 14.2828V12.5297H12.2719V14.2828H10.5188ZM12.736 14.2828V12.5297H14.4891V14.2828H12.736Z" fill="#89664C"/>
<path d="M3.30005 21.0889H26.8125V31.0404H3.30005V21.0889Z" fill="#F9F3D9"/>
<path d="M19.0266 24.0283H22.9969V27.9986H19.0266V24.0283Z" fill="#D6EEF0"/>
<path d="M18.511 23.5645V28.5145H23.461V23.5645H18.511ZM22.9969 24.0285V25.7816H21.2438V24.0285H22.9969ZM20.7282 24.0285V25.7816H18.975V24.0285H20.7282ZM19.0266 27.9988V26.2973H20.7797V28.0504H19.0266V27.9988ZM21.2438 27.9988V26.2973H22.9969V28.0504H21.2438V27.9988ZM9.48755 24.9051H13.8188V30.9895H9.48755V24.9051Z" fill="#89664C"/>
<path d="M9.07495 24.0283H14.2828V24.9049H9.07495V24.0283Z" fill="#DBB471"/>
<path d="M13.097 27.8434C13.2678 27.8434 13.4063 27.7048 13.4063 27.534C13.4063 27.3631 13.2678 27.2246 13.097 27.2246C12.9261 27.2246 12.7876 27.3631 12.7876 27.534C12.7876 27.7048 12.9261 27.8434 13.097 27.8434Z" fill="#F9F3D9"/>
<path d="M1.03125 30.9893H31.9688V31.9689H1.03125V30.9893Z" fill="#83BF4F"/>
<path d="M25.575 17.2217H4.48594L1.03125 21.0889H29.0813L25.575 17.2217Z" fill="#ED4C5C"/>
<path d="M31.9688 28.9785C31.9688 28.3598 31.5048 27.8957 30.886 27.8957C30.7829 27.8957 30.6282 27.8957 30.5251 27.9473C30.3704 27.6895 30.1126 27.4832 29.8032 27.4832C29.597 27.4832 29.4423 27.5348 29.2876 27.6379V27.4832C29.2876 27.0191 28.9267 26.6582 28.4626 26.6582C28.0501 26.6582 27.7407 26.9676 27.6376 27.3285C27.5345 27.2254 27.4313 27.2254 27.2767 27.2254C26.9673 27.2254 26.7095 27.4832 26.7095 27.7926V31.041H31.0407C31.5048 31.041 31.8657 30.6801 31.8657 30.216C31.8657 30.0098 31.7626 29.8035 31.6595 29.6488C31.8657 29.4426 31.9688 29.2363 31.9688 28.9785Z" fill="#83BF4F"/>
<path d="M31.9688 30.1637C31.9688 29.9574 31.8656 29.7512 31.7625 29.5965C31.9172 29.3902 31.9688 29.184 31.9688 28.9262C31.9688 28.3074 31.5047 27.8434 30.8859 27.8434C30.7828 27.8434 30.6281 27.8434 30.525 27.8949C30.4219 27.7402 30.3188 27.5855 30.1125 27.4824C29.8031 27.5855 29.6484 27.8949 29.6484 28.2043C29.6484 28.3074 29.6484 28.359 29.7 28.4105C29.6484 28.359 29.5453 28.359 29.4422 28.359C29.1328 28.359 28.875 28.6168 28.875 28.9262C28.875 29.1324 28.9781 29.2871 29.1844 29.3902C29.0812 29.5449 28.9781 29.7512 28.9781 29.9574C28.9781 30.473 29.3906 30.8855 29.9062 30.8855H31.1438C31.6078 30.9887 31.9688 30.6277 31.9688 30.1637ZM28.7719 30.3184C28.7719 30.6277 28.5141 30.2152 28.2047 30.2152C27.8953 30.2152 27.6375 30.6277 27.6375 30.3184C27.6375 30.009 27.8953 29.7512 28.2047 29.7512C28.5141 29.7512 28.7719 30.009 28.7719 30.3184ZM27.5859 29.3902C27.5859 29.5449 27.4828 29.3902 27.3281 29.3902C27.1734 29.3902 27.0703 29.5449 27.0703 29.3902C27.0703 29.2355 27.1734 29.1324 27.3281 29.1324C27.4313 29.0809 27.5859 29.2355 27.5859 29.3902Z" fill="#699635"/>
<path d="M28.05 28.566C28.05 28.7207 27.9469 28.5145 27.7922 28.5145C27.6375 28.5145 27.5344 28.7207 27.5344 28.566C27.5344 28.4113 27.6375 28.3082 27.7922 28.3082C27.9469 28.3082 28.05 28.4113 28.05 28.566ZM30.3188 29.9066C30.3188 30.1129 30.1641 29.8035 29.9578 29.8035C29.7516 29.8035 29.5969 30.1129 29.5969 29.9066C29.5969 29.7004 29.7516 29.5457 29.9578 29.5457C30.1125 29.5457 30.3188 29.7004 30.3188 29.9066ZM31.35 28.927C31.35 29.2363 31.0922 28.7723 30.7828 28.7723C30.4734 28.7723 30.2156 29.2363 30.2156 28.927C30.2156 28.6176 30.4734 28.3598 30.7828 28.3598C31.0922 28.3598 31.35 28.6176 31.35 28.927ZM31.35 30.216C31.35 30.3707 31.2469 30.216 31.0922 30.216C30.9375 30.216 30.8344 30.3707 30.8344 30.216C30.8344 30.0613 30.9375 29.9582 31.0922 29.9582C31.2469 29.9582 31.35 30.0613 31.35 30.216ZM28.9266 27.9988C28.9266 28.2051 28.7719 27.8957 28.5656 27.8957C28.3594 27.8957 28.2047 28.2051 28.2047 27.9988C28.2047 27.7926 28.3594 27.6379 28.5656 27.6379C28.7719 27.6379 28.9266 27.7926 28.9266 27.9988ZM6.1875 28.9785C6.1875 28.3598 5.72344 27.8957 5.10469 27.8957C5.00156 27.8957 4.84687 27.8957 4.74375 27.9473C4.58906 27.6895 4.33125 27.4832 4.02188 27.4832C3.81563 27.4832 3.66094 27.5348 3.50625 27.6379V27.4832C3.50625 27.0191 3.14531 26.6582 2.68125 26.6582C2.26875 26.6582 1.95938 26.9676 1.90781 27.3285C1.80469 27.2254 1.70156 27.2254 1.54688 27.2254C1.2375 27.2254 1.03125 27.4832 1.03125 27.7926V31.041H5.3625C5.82656 31.041 6.1875 30.6801 6.1875 30.216C6.1875 30.0098 6.08438 29.8035 5.98125 29.6488C6.08438 29.4426 6.1875 29.2363 6.1875 28.9785Z" fill="#83BF4F"/>
<path d="M6.1875 30.1637C6.1875 29.9574 6.08438 29.7512 5.98125 29.5965C6.13594 29.3902 6.1875 29.184 6.1875 28.9262C6.1875 28.3074 5.72344 27.8434 5.10469 27.8434C5.00156 27.8434 4.84687 27.8434 4.74375 27.8949C4.64062 27.7402 4.5375 27.5855 4.33125 27.4824C4.02187 27.5855 3.86719 27.8949 3.86719 28.2043C3.86719 28.3074 3.86719 28.359 3.91875 28.4105C3.86719 28.359 3.76406 28.359 3.66094 28.359C3.35156 28.359 3.09375 28.6168 3.09375 28.9262C3.09375 29.1324 3.19687 29.2871 3.40313 29.3902C3.3 29.5449 3.19687 29.7512 3.19687 29.9574C3.19687 30.473 3.60938 30.8855 4.125 30.8855H5.3625C5.82656 30.9887 6.1875 30.6277 6.1875 30.1637ZM2.99063 30.3184C2.99063 30.6277 2.73281 30.2152 2.42344 30.2152C2.11406 30.2152 1.85625 30.6277 1.85625 30.3184C1.85625 30.009 2.11406 29.7512 2.42344 29.7512C2.73281 29.7512 2.99063 30.009 2.99063 30.3184ZM1.80469 29.3902C1.80469 29.5449 1.70156 29.3902 1.54688 29.3902C1.39219 29.3902 1.28906 29.5449 1.28906 29.3902C1.28906 29.2355 1.39219 29.1324 1.54688 29.1324C1.65 29.0809 1.80469 29.2355 1.80469 29.3902Z" fill="#699635"/>
<path d="M2.2688 28.5658C2.2688 28.7205 2.16567 28.5143 2.01099 28.5143C1.8563 28.5143 1.75317 28.7205 1.75317 28.5658C1.75317 28.4111 1.8563 28.308 2.01099 28.308C2.11411 28.308 2.2688 28.4111 2.2688 28.5658ZM4.53755 29.9064C4.53755 30.1127 4.38286 29.8033 4.17661 29.8033C3.97036 29.8033 3.81567 30.1127 3.81567 29.9064C3.81567 29.7002 3.97036 29.5455 4.17661 29.5455C4.3313 29.5455 4.53755 29.7002 4.53755 29.9064ZM5.5688 28.9268C5.5688 29.2361 5.31099 28.7721 5.00161 28.7721C4.69224 28.7721 4.43442 29.2361 4.43442 28.9268C4.43442 28.6174 4.7438 28.3596 5.00161 28.3596C5.31099 28.3596 5.5688 28.6174 5.5688 28.9268ZM5.5688 30.2158C5.5688 30.3705 5.46567 30.2158 5.31099 30.2158C5.1563 30.2158 5.05317 30.3705 5.05317 30.2158C5.05317 30.0611 5.1563 29.958 5.31099 29.958C5.46567 29.9064 5.5688 30.0611 5.5688 30.2158ZM3.14536 27.9986C3.14536 28.2049 2.99067 27.8955 2.78442 27.8955C2.57817 27.8955 2.42349 28.2049 2.42349 27.9986C2.42349 27.7924 2.57817 27.6377 2.78442 27.6377C2.99067 27.6377 3.14536 27.7924 3.14536 27.9986Z" fill="#83BF4F"/>
</svg>
