<svg width="16" height="16" viewBox="0 0 16 16" fill="none" xmlns="http://www.w3.org/2000/svg">
<path d="M13.4869 7.88312C13.468 7.80298 13.4295 7.72876 13.375 7.66705C13.3205 7.60534 13.2516 7.55804 13.1744 7.52937L9.57377 6.17875L10.49 1.59562C10.5108 1.48913 10.4963 1.37879 10.4489 1.28123C10.4014 1.18368 10.3235 1.10421 10.2269 1.05482C10.1303 1.00543 10.0202 0.988797 9.91337 1.00743C9.80649 1.02606 9.70858 1.07896 9.6344 1.15812L2.6344 8.65812C2.57754 8.71803 2.53641 8.79108 2.51469 8.87076C2.49296 8.95044 2.4913 9.03427 2.50987 9.11474C2.52845 9.19522 2.56666 9.26984 2.62111 9.33194C2.67556 9.39404 2.74454 9.44169 2.8219 9.47062L6.42377 10.8212L5.51002 15.3994C5.48927 15.5059 5.50372 15.6162 5.55119 15.7138C5.59866 15.8113 5.67657 15.8908 5.77316 15.9402C5.86976 15.9896 5.97979 16.0062 6.08667 15.9876C6.19355 15.9689 6.29146 15.916 6.36565 15.8369L13.3656 8.33687C13.4215 8.27695 13.4617 8.20424 13.4829 8.12512C13.504 8.046 13.5054 7.9629 13.4869 7.88312ZM6.83565 13.8725L7.49002 10.5987C7.51344 10.4826 7.49488 10.362 7.43765 10.2583C7.38042 10.1546 7.28824 10.0746 7.17752 10.0325L3.87502 8.79187L9.16377 3.12562L8.51002 6.39937C8.4866 6.51548 8.50516 6.63613 8.56239 6.73983C8.61962 6.84353 8.7118 6.92354 8.82252 6.96562L12.1225 8.20312L6.83565 13.8725Z" fill="#273E8E"/>
</svg>
