<svg width="40" height="40" viewBox="0 0 40 40" fill="none" xmlns="http://www.w3.org/2000/svg">
<path d="M27.8735 11.6475H11.3735C10.9757 11.6475 10.5942 11.8055 10.3129 12.0868C10.0316 12.3681 9.87354 12.7496 9.87354 13.1475V26.6475C9.87354 27.0453 10.0316 27.4268 10.3129 27.7081C10.5942 27.9894 10.9757 28.1475 11.3735 28.1475H27.8735C28.2714 28.1475 28.6529 27.9894 28.9342 27.7081C29.2155 27.4268 29.3735 27.0453 29.3735 26.6475V13.1475C29.3735 12.7496 29.2155 12.3681 28.9342 12.0868C28.6529 11.8055 28.2714 11.6475 27.8735 11.6475ZM19.6235 22.8975C18.4304 22.8962 17.2866 22.4217 16.4429 21.5781C15.5993 20.7344 15.1248 19.5906 15.1235 18.3975C15.1235 18.1985 15.2026 18.0078 15.3432 17.8671C15.4839 17.7265 15.6746 17.6475 15.8735 17.6475C16.0724 17.6475 16.2632 17.7265 16.4039 17.8671C16.5445 18.0078 16.6235 18.1985 16.6235 18.3975C16.6235 19.1931 16.9396 19.9562 17.5022 20.5188C18.0648 21.0814 18.8279 21.3975 19.6235 21.3975C20.4192 21.3975 21.1822 21.0814 21.7449 20.5188C22.3075 19.9562 22.6235 19.1931 22.6235 18.3975C22.6235 18.1985 22.7026 18.0078 22.8432 17.8671C22.9839 17.7265 23.1746 17.6475 23.3735 17.6475C23.5724 17.6475 23.7632 17.7265 23.9039 17.8671C24.0445 18.0078 24.1235 18.1985 24.1235 18.3975C24.1223 19.5906 23.6478 20.7344 22.8041 21.5781C21.9605 22.4217 20.8166 22.8962 19.6235 22.8975ZM11.3735 14.6475V13.1475H27.8735V14.6475H11.3735Z" fill="white" fill-opacity="0.7"/>
</svg>
