<svg width="40" height="40" viewBox="0 0 40 40" fill="none" xmlns="http://www.w3.org/2000/svg">
<path d="M29.8891 18.381C29.8682 18.2754 29.8248 18.1755 29.7619 18.0881C29.699 18.0008 29.618 17.928 29.5244 17.8747L26.7278 16.281L26.7166 13.1291C26.7162 13.0206 26.6923 12.9134 26.6465 12.815C26.6007 12.7166 26.5341 12.6293 26.4513 12.5591C25.4368 11.701 24.2686 11.0434 23.0088 10.6213C22.9096 10.5877 22.8044 10.5753 22.7001 10.5848C22.5958 10.5944 22.4946 10.6256 22.4031 10.6766L19.5822 12.2535L16.7585 10.6738C16.6669 10.6225 16.5656 10.591 16.4611 10.5813C16.3567 10.5716 16.2513 10.584 16.1519 10.6176C14.8928 11.0424 13.7259 11.7025 12.7131 12.5629C12.6304 12.6329 12.5639 12.7201 12.5181 12.8183C12.4723 12.9165 12.4483 13.0235 12.4478 13.1319L12.4338 16.2866L9.63721 17.8804C9.54365 17.9336 9.46265 18.0064 9.39972 18.0938C9.3368 18.1811 9.29341 18.281 9.27252 18.3866C9.01658 19.6728 9.01658 20.9967 9.27252 22.2829C9.29341 22.3885 9.3368 22.4884 9.39972 22.5757C9.46265 22.6631 9.54365 22.7359 9.63721 22.7891L12.4338 24.3829L12.445 27.5357C12.4454 27.6442 12.4693 27.7514 12.5151 27.8498C12.5609 27.9482 12.6275 28.0355 12.7103 28.1057C13.7248 28.9638 14.893 29.6214 16.1528 30.0435C16.252 30.0771 16.3572 30.0895 16.4615 30.08C16.5658 30.0705 16.667 30.0392 16.7585 29.9882L19.5822 28.4066L22.406 29.9863C22.5177 30.0486 22.6437 30.0809 22.7716 30.0801C22.8535 30.08 22.9349 30.0667 23.0125 30.0407C24.2713 29.616 25.4382 28.9566 26.4513 28.0972C26.534 28.0272 26.6005 27.9401 26.6463 27.8418C26.6921 27.7436 26.7161 27.6366 26.7166 27.5282L26.7306 24.3735L29.5272 22.7797C29.6208 22.7265 29.7018 22.6537 29.7647 22.5663C29.8276 22.479 29.871 22.3791 29.8919 22.2735C30.1464 20.9884 30.1455 19.6657 29.8891 18.381ZM19.5822 24.0801C18.8405 24.0801 18.1155 23.8601 17.4988 23.4481C16.8821 23.036 16.4015 22.4503 16.1177 21.7651C15.8338 21.0799 15.7596 20.3259 15.9043 19.5985C16.049 18.871 16.4061 18.2029 16.9306 17.6784C17.455 17.154 18.1232 16.7968 18.8506 16.6521C19.578 16.5074 20.332 16.5817 21.0173 16.8655C21.7025 17.1493 22.2882 17.63 22.7002 18.2467C23.1123 18.8634 23.3322 19.5884 23.3322 20.3301C23.3322 21.3246 22.9371 22.2784 22.2339 22.9817C21.5306 23.685 20.5768 24.0801 19.5822 24.0801Z" fill="white" fill-opacity="0.7"/>
</svg>
