<svg width="25" height="25" viewBox="0 0 25 25" fill="none" xmlns="http://www.w3.org/2000/svg">
<path d="M21.5 6.5H17V5.75C17 5.15326 16.7629 4.58097 16.341 4.15901C15.919 3.73705 15.3467 3.5 14.75 3.5H10.25C9.65326 3.5 9.08097 3.73705 8.65901 4.15901C8.23705 4.58097 8 5.15326 8 5.75V6.5H3.5C3.10218 6.5 2.72064 6.65804 2.43934 6.93934C2.15804 7.22064 2 7.60218 2 8V18.5C2 18.8978 2.15804 19.2794 2.43934 19.5607C2.72064 19.842 3.10218 20 3.5 20H21.5C21.8978 20 22.2794 19.842 22.5607 19.5607C22.842 19.2794 23 18.8978 23 18.5V8C23 7.60218 22.842 7.22064 22.5607 6.93934C22.2794 6.65804 21.8978 6.5 21.5 6.5ZM9.5 5.75C9.5 5.55109 9.57902 5.36032 9.71967 5.21967C9.86032 5.07902 10.0511 5 10.25 5H14.75C14.9489 5 15.1397 5.07902 15.2803 5.21967C15.421 5.36032 15.5 5.55109 15.5 5.75V6.5H9.5V5.75ZM21.5 8V11H18.5V10.25C18.5 10.0511 18.421 9.86032 18.2803 9.71967C18.1397 9.57902 17.9489 9.5 17.75 9.5C17.5511 9.5 17.3603 9.57902 17.2197 9.71967C17.079 9.86032 17 10.0511 17 10.25V11H8V10.25C8 10.0511 7.92098 9.86032 7.78033 9.71967C7.63968 9.57902 7.44891 9.5 7.25 9.5C7.05109 9.5 6.86032 9.57902 6.71967 9.71967C6.57902 9.86032 6.5 10.0511 6.5 10.25V11H3.5V8H21.5ZM21.5 18.5H3.5V12.5H6.5V13.25C6.5 13.4489 6.57902 13.6397 6.71967 13.7803C6.86032 13.921 7.05109 14 7.25 14C7.44891 14 7.63968 13.921 7.78033 13.7803C7.92098 13.6397 8 13.4489 8 13.25V12.5H17V13.25C17 13.4489 17.079 13.6397 17.2197 13.7803C17.3603 13.921 17.5511 14 17.75 14C17.9489 14 18.1397 13.921 18.2803 13.7803C18.421 13.6397 18.5 13.4489 18.5 13.25V12.5H21.5V18.5Z" fill="black" fill-opacity="0.5"/>
</svg>
