<svg width="25" height="25" viewBox="0 0 25 25" fill="none" xmlns="http://www.w3.org/2000/svg">
<path d="M22.25 9.5C22.2504 9.43027 22.2409 9.36083 22.2219 9.29375L20.8766 4.5875C20.7861 4.27523 20.5971 4.00059 20.3378 3.80459C20.0784 3.60858 19.7626 3.50174 19.4375 3.5H5.5625C5.23741 3.50174 4.9216 3.60858 4.66223 3.80459C4.40287 4.00059 4.21386 4.27523 4.12344 4.5875L2.77906 9.29375C2.7597 9.36079 2.74991 9.43022 2.75 9.5V11C2.75 11.5822 2.88554 12.1563 3.1459 12.6771C3.40625 13.1978 3.78427 13.6507 4.25 14V20.75C4.25 20.9489 4.32902 21.1397 4.46967 21.2803C4.61032 21.421 4.80109 21.5 5 21.5H20C20.1989 21.5 20.3897 21.421 20.5303 21.2803C20.671 21.1397 20.75 20.9489 20.75 20.75V14C21.2157 13.6507 21.5937 13.1978 21.8541 12.6771C22.1145 12.1563 22.25 11.5822 22.25 11V9.5ZM5.5625 5H19.4375L20.5081 8.75H4.49469L5.5625 5ZM10.25 10.25H14.75V11C14.75 11.5967 14.5129 12.169 14.091 12.591C13.669 13.0129 13.0967 13.25 12.5 13.25C11.9033 13.25 11.331 13.0129 10.909 12.591C10.4871 12.169 10.25 11.5967 10.25 11V10.25ZM8.75 10.25V11C8.74987 11.3869 8.64996 11.7673 8.45993 12.1043C8.2699 12.4413 7.99617 12.7236 7.66518 12.924C7.33419 13.1244 6.95713 13.236 6.57041 13.2481C6.18369 13.2602 5.80038 13.1724 5.4575 12.9931C5.40533 12.9525 5.34794 12.9191 5.28688 12.8937C4.96913 12.6903 4.70764 12.4103 4.52646 12.0794C4.34527 11.7484 4.2502 11.3773 4.25 11V10.25H8.75ZM19.25 20H5.75V14.675C5.9969 14.7248 6.24813 14.7499 6.5 14.75C7.08217 14.75 7.65634 14.6145 8.17705 14.3541C8.69776 14.0937 9.1507 13.7157 9.5 13.25C9.8493 13.7157 10.3022 14.0937 10.823 14.3541C11.3437 14.6145 11.9178 14.75 12.5 14.75C13.0822 14.75 13.6563 14.6145 14.1771 14.3541C14.6978 14.0937 15.1507 13.7157 15.5 13.25C15.8493 13.7157 16.3022 14.0937 16.8229 14.3541C17.3437 14.6145 17.9178 14.75 18.5 14.75C18.7519 14.7499 19.0031 14.7248 19.25 14.675V20ZM19.7122 12.8937C19.6519 12.9191 19.5952 12.9522 19.5434 12.9922C19.2006 13.1716 18.8173 13.2596 18.4305 13.2477C18.0437 13.2357 17.6666 13.1242 17.3355 12.924C17.0044 12.7237 16.7305 12.4414 16.5404 12.1044C16.3502 11.7673 16.2502 11.387 16.25 11V10.25H20.75V11C20.7497 11.3774 20.6545 11.7486 20.4731 12.0795C20.2918 12.4104 20.0301 12.6904 19.7122 12.8937Z" fill="black" fill-opacity="0.5"/>
</svg>
