<svg width="22" height="21" viewBox="0 0 22 21" fill="none" xmlns="http://www.w3.org/2000/svg">
<path d="M2.0001 9.75C2.0001 9.55109 2.07912 9.36032 2.21977 9.21967C2.36042 9.07902 2.55119 9 2.7501 9H4.2501C4.44901 9 4.63978 9.07902 4.78043 9.21967C4.92108 9.36032 5.0001 9.55109 5.0001 9.75C5.0001 9.94891 4.92108 10.1397 4.78043 10.2803C4.63978 10.421 4.44901 10.5 4.2501 10.5H2.7501C2.55119 10.5 2.36042 10.421 2.21977 10.2803C2.07912 10.1397 2.0001 9.94891 2.0001 9.75ZM5.69666 5.50781C5.8374 5.64854 6.02827 5.7276 6.22729 5.7276C6.42631 5.7276 6.61718 5.64854 6.75791 5.50781C6.89864 5.36708 6.97771 5.17621 6.97771 4.97719C6.97771 4.77816 6.89864 4.58729 6.75791 4.44656L5.69666 3.38625C5.55487 3.25153 5.36606 3.17754 5.17048 3.18005C4.97491 3.18255 4.78806 3.26135 4.64976 3.39965C4.51146 3.53795 4.43265 3.72481 4.43015 3.92038C4.42764 4.11595 4.50164 4.30477 4.63635 4.44656L5.69666 5.50781ZM11.0001 3.75C11.199 3.75 11.3898 3.67098 11.5304 3.53033C11.6711 3.38968 11.7501 3.19891 11.7501 3V1.5C11.7501 1.30109 11.6711 1.11032 11.5304 0.96967C11.3898 0.829018 11.199 0.75 11.0001 0.75C10.8012 0.75 10.6104 0.829018 10.4698 0.96967C10.3291 1.11032 10.2501 1.30109 10.2501 1.5V3C10.2501 3.19891 10.3291 3.38968 10.4698 3.53033C10.6104 3.67098 10.8012 3.75 11.0001 3.75ZM15.7729 5.72719C15.8714 5.72726 15.969 5.70793 16.0601 5.67029C16.1511 5.63265 16.2338 5.57744 16.3035 5.50781L17.3639 4.44656C17.4986 4.30477 17.5726 4.11595 17.5701 3.92038C17.5676 3.72481 17.4887 3.53795 17.3504 3.39965C17.2121 3.26135 17.0253 3.18255 16.8297 3.18005C16.6341 3.17754 16.4453 3.25153 16.3035 3.38625L15.2423 4.44656C15.1373 4.55145 15.0658 4.68514 15.0368 4.83071C15.0078 4.97627 15.0226 5.12716 15.0794 5.26428C15.1363 5.4014 15.2325 5.51857 15.3559 5.60098C15.4794 5.68338 15.6245 5.7273 15.7729 5.72719ZM17.0001 9.75C17.0001 9.94891 17.0791 10.1397 17.2198 10.2803C17.3604 10.421 17.5512 10.5 17.7501 10.5H19.2501C19.449 10.5 19.6398 10.421 19.7804 10.2803C19.9211 10.1397 20.0001 9.94891 20.0001 9.75C20.0001 9.55109 19.9211 9.36032 19.7804 9.21967C19.6398 9.07902 19.449 9 19.2501 9H17.7501C17.5512 9 17.3604 9.07902 17.2198 9.21967C17.0791 9.36032 17.0001 9.55109 17.0001 9.75ZM7.2501 10.5C7.44901 10.5 7.63978 10.421 7.78043 10.2803C7.92108 10.1397 8.0001 9.94891 8.0001 9.75C8.0001 8.95435 8.31617 8.19129 8.87878 7.62868C9.44139 7.06607 10.2045 6.75 11.0001 6.75C11.7958 6.75 12.5588 7.06607 13.1214 7.62868C13.684 8.19129 14.0001 8.95435 14.0001 9.75C14.0001 9.94891 14.0791 10.1397 14.2198 10.2803C14.3604 10.421 14.5512 10.5 14.7501 10.5C14.949 10.5 15.1398 10.421 15.2804 10.2803C15.4211 10.1397 15.5001 9.94891 15.5001 9.75C15.5001 8.55653 15.026 7.41193 14.1821 6.56802C13.3382 5.72411 12.1936 5.25 11.0001 5.25C9.80663 5.25 8.66203 5.72411 7.81812 6.56802C6.97421 7.41193 6.5001 8.55653 6.5001 9.75C6.5001 9.94891 6.57912 10.1397 6.71977 10.2803C6.86042 10.421 7.05119 10.5 7.2501 10.5ZM21.3979 20.625C21.3322 20.7388 21.2378 20.8333 21.1241 20.8991C21.0104 20.9649 20.8815 20.9997 20.7501 21H1.2501C1.1187 21.0006 0.989444 20.9667 0.875275 20.9016C0.761106 20.8366 0.666032 20.7427 0.599575 20.6293C0.533117 20.516 0.497608 20.3871 0.496604 20.2557C0.4956 20.1243 0.529135 19.995 0.593852 19.8806L4.40854 13.1306C4.47421 13.0146 4.56964 12.9181 4.68499 12.8512C4.80034 12.7843 4.93144 12.7494 5.06479 12.75H16.9345C17.0678 12.7494 17.1989 12.7843 17.3143 12.8512C17.4296 12.9181 17.5251 13.0146 17.5907 13.1306L21.4054 19.8806C21.4691 19.9946 21.5019 20.1233 21.5005 20.2538C21.4992 20.3844 21.4638 20.5123 21.3979 20.625ZM16.4976 14.25H14.2129L14.5392 15.75H17.3451L16.4976 14.25ZM13.0045 15.75L12.6782 14.25H9.32198L8.99573 15.75H13.0045ZM8.66948 17.25L8.18104 19.5H13.8192L13.3307 17.25H8.66948ZM4.6551 15.75H7.46104L7.78729 14.25H5.5026L4.6551 15.75ZM2.53541 19.5H6.64541L7.13479 17.25H3.8076L2.53541 19.5ZM19.4648 19.5L18.1926 17.25H14.8654L15.3548 19.5H19.4648Z" fill="white"/>
</svg>
