<svg width="8" height="7" viewBox="0 0 8 7" fill="none" xmlns="http://www.w3.org/2000/svg">
<path d="M0.999953 3.25C0.999953 3.1837 1.02629 3.12011 1.07318 3.07322C1.12006 3.02634 1.18365 3 1.24995 3H1.74995C1.81626 3 1.87985 3.02634 1.92673 3.07322C1.97361 3.12011 1.99995 3.1837 1.99995 3.25C1.99995 3.3163 1.97361 3.37989 1.92673 3.42678C1.87985 3.47366 1.81626 3.5 1.74995 3.5H1.24995C1.18365 3.5 1.12006 3.47366 1.07318 3.42678C1.02629 3.37989 0.999953 3.3163 0.999953 3.25ZM2.23214 1.83594C2.27905 1.88285 2.34267 1.9092 2.40902 1.9092C2.47536 1.9092 2.53898 1.88285 2.58589 1.83594C2.6328 1.78903 2.65915 1.7254 2.65915 1.65906C2.65915 1.59272 2.6328 1.5291 2.58589 1.48219L2.23214 1.12875C2.18487 1.08384 2.12194 1.05918 2.05675 1.06002C1.99156 1.06085 1.92927 1.08712 1.88317 1.13322C1.83707 1.17932 1.8108 1.2416 1.80997 1.30679C1.80913 1.37198 1.8338 1.43492 1.8787 1.48219L2.23214 1.83594ZM3.99995 1.25C4.06626 1.25 4.12985 1.22366 4.17673 1.17678C4.22361 1.12989 4.24995 1.0663 4.24995 1V0.5C4.24995 0.433696 4.22361 0.370107 4.17673 0.323223C4.12985 0.276339 4.06626 0.25 3.99995 0.25C3.93365 0.25 3.87006 0.276339 3.82318 0.323223C3.77629 0.370107 3.74995 0.433696 3.74995 0.5V1C3.74995 1.0663 3.77629 1.12989 3.82318 1.17678C3.87006 1.22366 3.93365 1.25 3.99995 1.25ZM5.59089 1.90906C5.62373 1.90909 5.65625 1.90264 5.6866 1.8901C5.71695 1.87755 5.74453 1.85915 5.76777 1.83594L6.1212 1.48219C6.16611 1.43492 6.19077 1.37198 6.18994 1.30679C6.1891 1.2416 6.16284 1.17932 6.11673 1.13322C6.07063 1.08712 6.00835 1.06085 5.94316 1.06002C5.87797 1.05918 5.81503 1.08384 5.76777 1.12875L5.41401 1.48219C5.37901 1.51715 5.35517 1.56171 5.34551 1.61024C5.33584 1.65876 5.3408 1.70905 5.35973 1.75476C5.37867 1.80047 5.41075 1.83952 5.45189 1.86699C5.49304 1.89446 5.54142 1.9091 5.59089 1.90906ZM5.99995 3.25C5.99995 3.3163 6.02629 3.37989 6.07318 3.42678C6.12006 3.47366 6.18365 3.5 6.24995 3.5H6.74995C6.81626 3.5 6.87985 3.47366 6.92673 3.42678C6.97361 3.37989 6.99995 3.3163 6.99995 3.25C6.99995 3.1837 6.97361 3.12011 6.92673 3.07322C6.87985 3.02634 6.81626 3 6.74995 3H6.24995C6.18365 3 6.12006 3.02634 6.07318 3.07322C6.02629 3.12011 5.99995 3.1837 5.99995 3.25ZM2.74995 3.5C2.81626 3.5 2.87985 3.47366 2.92673 3.42678C2.97361 3.37989 2.99995 3.3163 2.99995 3.25C2.99995 2.98478 3.10531 2.73043 3.29285 2.54289C3.48038 2.35536 3.73474 2.25 3.99995 2.25C4.26517 2.25 4.51952 2.35536 4.70706 2.54289C4.8946 2.73043 4.99995 2.98478 4.99995 3.25C4.99995 3.3163 5.02629 3.37989 5.07318 3.42678C5.12006 3.47366 5.18365 3.5 5.24995 3.5C5.31626 3.5 5.37985 3.47366 5.42673 3.42678C5.47361 3.37989 5.49995 3.3163 5.49995 3.25C5.49995 2.85217 5.34192 2.47064 5.06061 2.18934C4.77931 1.90804 4.39778 1.75 3.99995 1.75C3.60213 1.75 3.2206 1.90804 2.93929 2.18934C2.65799 2.47064 2.49995 2.85217 2.49995 3.25C2.49995 3.3163 2.52629 3.37989 2.57318 3.42678C2.62006 3.47366 2.68365 3.5 2.74995 3.5ZM7.46589 6.875C7.444 6.91292 7.41253 6.94443 7.37463 6.96636C7.33673 6.9883 7.29374 6.9999 7.24995 7H0.749953C0.706152 7.00021 0.663067 6.9889 0.62501 6.96721C0.586954 6.94553 0.555263 6.91423 0.53311 6.87644C0.510958 6.83866 0.499121 6.79571 0.498787 6.75191C0.498452 6.70811 0.50963 6.66499 0.531203 6.62687L1.80277 4.37687C1.82466 4.33819 1.85647 4.30604 1.89492 4.28374C1.93337 4.26144 1.97707 4.24979 2.02152 4.25H5.97808C6.02253 4.24979 6.06623 4.26144 6.10468 4.28374C6.14313 4.30604 6.17494 4.33819 6.19683 4.37687L7.46839 6.62687C7.48961 6.66487 7.50054 6.70775 7.5001 6.75127C7.49966 6.79479 7.48787 6.83744 7.46589 6.875ZM5.83245 4.75H5.07089L5.17964 5.25H6.11495L5.83245 4.75ZM4.66808 5.25L4.55933 4.75H3.44058L3.33183 5.25H4.66808ZM3.22308 5.75L3.06027 6.5H4.93964L4.77683 5.75H3.22308ZM1.88495 5.25H2.82027L2.92902 4.75H2.16745L1.88495 5.25ZM1.17839 6.5H2.54839L2.71151 5.75H1.60245L1.17839 6.5ZM6.82151 6.5L6.39745 5.75H5.28839L5.45151 6.5H6.82151Z" fill="black"/>
</svg>
