<svg width="35" height="6" viewBox="0 0 35 6" fill="none" xmlns="http://www.w3.org/2000/svg">
<path d="M2.53726 0.878116C2.62707 0.601723 3.01809 0.601722 3.1079 0.878116L3.38894 1.74306C3.4291 1.86667 3.54428 1.95036 3.67425 1.95036L4.58371 1.95036C4.87433 1.95036 4.99516 2.32224 4.76004 2.49306L4.02428 3.02763C3.91913 3.10402 3.87513 3.23943 3.9153 3.36304L4.19633 4.22798C4.28614 4.50437 3.9698 4.73421 3.73468 4.56339L2.99892 4.02883C2.89377 3.95243 2.75139 3.95243 2.64625 4.02883L1.91048 4.56339C1.67536 4.73421 1.35902 4.50437 1.44883 4.22798L1.72986 3.36304C1.77003 3.23943 1.72603 3.10402 1.62088 3.02763L0.885117 2.49306C0.650003 2.32224 0.770835 1.95036 1.06145 1.95036L1.97091 1.95036C2.10088 1.95036 2.21606 1.86667 2.25623 1.74306L2.53726 0.878116Z" fill="#273E8E"/>
<path d="M9.87595 0.878116C9.96575 0.601723 10.3568 0.601722 10.4466 0.878116L10.7276 1.74306C10.7678 1.86667 10.883 1.95036 11.0129 1.95036L11.9224 1.95036C12.213 1.95036 12.3338 2.32224 12.0987 2.49306L11.363 3.02763C11.2578 3.10402 11.2138 3.23943 11.254 3.36304L11.535 4.22798C11.6248 4.50437 11.3085 4.73421 11.0734 4.56339L10.3376 4.02883C10.2325 3.95243 10.0901 3.95243 9.98493 4.02883L9.24916 4.56339C9.01405 4.73421 8.6977 4.50437 8.78751 4.22798L9.06855 3.36304C9.10871 3.23943 9.06471 3.10402 8.95957 3.02763L8.2238 2.49306C7.98869 2.32224 8.10952 1.95036 8.40014 1.95036L9.30959 1.95036C9.43956 1.95036 9.55475 1.86667 9.59491 1.74306L9.87595 0.878116Z" fill="#273E8E"/>
<path d="M17.2147 0.878116C17.3045 0.601723 17.6955 0.601722 17.7853 0.878116L18.0664 1.74306C18.1065 1.86667 18.2217 1.95036 18.3517 1.95036L19.2611 1.95036C19.5518 1.95036 19.6726 2.32224 19.4375 2.49306L18.7017 3.02763C18.5966 3.10402 18.5526 3.23943 18.5927 3.36304L18.8738 4.22798C18.9636 4.50437 18.6472 4.73421 18.4121 4.56339L17.6763 4.02883C17.5712 3.95243 17.4288 3.95243 17.3237 4.02883L16.5879 4.56339C16.3528 4.73421 16.0364 4.50437 16.1263 4.22798L16.4073 3.36304C16.4475 3.23943 16.4035 3.10402 16.2983 3.02763L15.5625 2.49306C15.3274 2.32224 15.4483 1.95036 15.7389 1.95036L16.6483 1.95036C16.7783 1.95036 16.8935 1.86667 16.9337 1.74306L17.2147 0.878116Z" fill="#273E8E"/>
<path d="M24.5534 0.878116C24.6432 0.601723 25.0342 0.601722 25.124 0.878116L25.405 1.74306C25.4452 1.86667 25.5604 1.95036 25.6904 1.95036L26.5998 1.95036C26.8904 1.95036 27.0113 2.32224 26.7762 2.49306L26.0404 3.02763C25.9352 3.10402 25.8912 3.23943 25.9314 3.36304L26.2124 4.22798C26.3023 4.50437 25.9859 4.73421 25.7508 4.56339L25.015 4.02883C24.9099 3.95243 24.7675 3.95243 24.6624 4.02883L23.9266 4.56339C23.6915 4.73421 23.3751 4.50437 23.4649 4.22798L23.746 3.36304C23.7861 3.23943 23.7421 3.10402 23.637 3.02763L22.9012 2.49306C22.6661 2.32224 22.7869 1.95036 23.0776 1.95036L23.987 1.95036C24.117 1.95036 24.2322 1.86667 24.2723 1.74306L24.5534 0.878116Z" fill="#273E8E"/>
<path d="M31.8921 0.878116C31.9819 0.601723 32.373 0.601722 32.4628 0.878116L32.7438 1.74306C32.784 1.86667 32.8991 1.95036 33.0291 1.95036L33.9386 1.95036C34.2292 1.95036 34.35 2.32224 34.1149 2.49306L33.3791 3.02763C33.274 3.10402 33.23 3.23943 33.2702 3.36304L33.5512 4.22798C33.641 4.50437 33.3247 4.73421 33.0895 4.56339L32.3538 4.02883C32.2486 3.95243 32.1062 3.95243 32.0011 4.02883L31.2653 4.56339C31.0302 4.73421 30.7139 4.50437 30.8037 4.22798L31.0847 3.36304C31.1249 3.23943 31.0809 3.10402 30.9757 3.02763L30.24 2.49306C30.0049 2.32224 30.1257 1.95036 30.4163 1.95036L31.3258 1.95036C31.4557 1.95036 31.5709 1.86667 31.6111 1.74306L31.8921 0.878116Z" fill="#D9D9D9"/>
</svg>
