<svg width="29" height="28" viewBox="0 0 29 28" fill="none" xmlns="http://www.w3.org/2000/svg">
<path d="M14.3966 0.878116C14.4864 0.601722 14.8775 0.601722 14.9673 0.878115L18.0547 10.3803C18.0949 10.504 18.2101 10.5876 18.3401 10.5876H28.3313C28.6219 10.5876 28.7427 10.9595 28.5076 11.1303L20.4245 17.0031C20.3194 17.0794 20.2754 17.2149 20.3156 17.3385L23.403 26.8407C23.4928 27.1171 23.1765 27.3469 22.9414 27.1761L14.8583 21.3034C14.7531 21.227 14.6108 21.227 14.5056 21.3034L6.42254 27.1761C6.18742 27.3469 5.87108 27.1171 5.96089 26.8407L9.04835 17.3385C9.08851 17.2149 9.04451 17.0794 8.93937 17.0031L0.856285 11.1303C0.621171 10.9595 0.742004 10.5876 1.03262 10.5876H11.0239C11.1538 10.5876 11.269 10.504 11.3092 10.3803L14.3966 0.878116Z" fill="#D9D9D9"/>
</svg>
