<svg width="29" height="28" viewBox="0 0 29 28" fill="none" xmlns="http://www.w3.org/2000/svg">
<path d="M14.0373 0.878116C14.1271 0.601722 14.5181 0.601722 14.6079 0.878115L17.6954 10.3803C17.7355 10.504 17.8507 10.5876 17.9807 10.5876H27.9719C28.2625 10.5876 28.3834 10.9595 28.1483 11.1303L20.0652 17.0031C19.96 17.0794 19.916 17.2149 19.9562 17.3385L23.0437 26.8407C23.1335 27.1171 22.8171 27.3469 22.582 27.1761L14.4989 21.3034C14.3938 21.227 14.2514 21.227 14.1462 21.3034L6.06316 27.1761C5.82805 27.3469 5.5117 27.1171 5.60151 26.8407L8.68897 17.3385C8.72914 17.2149 8.68514 17.0794 8.57999 17.0031L0.49691 11.1303C0.261796 10.9595 0.382629 10.5876 0.673246 10.5876H10.6645C10.7945 10.5876 10.9096 10.504 10.9498 10.3803L14.0373 0.878116Z" fill="#273E8E"/>
</svg>
