<svg width="20" height="22" viewBox="0 0 20 22" fill="none" xmlns="http://www.w3.org/2000/svg">
<path d="M18.7377 9.68648L2.98773 0.696794C2.72206 0.547238 2.41713 0.482184 2.11356 0.510299C1.80999 0.538415 1.52219 0.658364 1.28851 0.854167C1.05483 1.04997 0.886364 1.31233 0.80555 1.60629C0.724737 1.90026 0.735416 2.21187 0.836164 2.49961L3.70773 10.999L0.836164 19.4993C0.75625 19.7255 0.731752 19.9675 0.764727 20.2052C0.797701 20.4428 0.887186 20.669 1.02567 20.8649C1.16416 21.0608 1.34761 21.2206 1.56063 21.3309C1.77365 21.4413 2.01002 21.4989 2.24991 21.499C2.51054 21.4984 2.76661 21.4306 2.99335 21.3021L18.7359 12.2974C18.9681 12.1673 19.1615 11.9778 19.2962 11.7483C19.431 11.5188 19.5023 11.2576 19.5028 10.9914C19.5032 10.7253 19.4329 10.4638 19.299 10.2338C19.165 10.0038 18.9723 9.81363 18.7405 9.68273L18.7377 9.68648ZM2.24991 19.999C2.25032 19.9952 2.25032 19.9915 2.24991 19.9877L5.03804 11.749H10.4999C10.6988 11.749 10.8896 11.67 11.0302 11.5293C11.1709 11.3887 11.2499 11.1979 11.2499 10.999C11.2499 10.8001 11.1709 10.6093 11.0302 10.4687C10.8896 10.328 10.6988 10.249 10.4999 10.249H5.03804L2.25554 2.01398C2.25462 2.00867 2.25271 2.00359 2.24991 1.99898L17.9999 10.983L2.24991 19.999Z" fill="black"/>
</svg>
