<svg width="40" height="40" viewBox="0 0 40 40" fill="none" xmlns="http://www.w3.org/2000/svg">
<path d="M26.4614 11.0869H24.2114V10.3369C24.2114 10.138 24.1324 9.94724 23.9918 9.80658C23.8511 9.66593 23.6603 9.58691 23.4614 9.58691C23.2625 9.58691 23.0717 9.66593 22.9311 9.80658C22.7904 9.94724 22.7114 10.138 22.7114 10.3369V11.0869H19.7114V10.3369C19.7114 10.138 19.6324 9.94724 19.4918 9.80658C19.3511 9.66593 19.1603 9.58691 18.9614 9.58691C18.7625 9.58691 18.5717 9.66593 18.4311 9.80658C18.2904 9.94724 18.2114 10.138 18.2114 10.3369V11.0869H15.2114V10.3369C15.2114 10.138 15.1324 9.94724 14.9918 9.80658C14.8511 9.66593 14.6603 9.58691 14.4614 9.58691C14.2625 9.58691 14.0717 9.66593 13.9311 9.80658C13.7904 9.94724 13.7114 10.138 13.7114 10.3369V11.0869H11.4614C11.2625 11.0869 11.0717 11.1659 10.9311 11.3066C10.7904 11.4472 10.7114 11.638 10.7114 11.8369V26.8369C10.7114 27.6326 11.0275 28.3956 11.5901 28.9582C12.1527 29.5208 12.9158 29.8369 13.7114 29.8369H24.2114C25.0071 29.8369 25.7701 29.5208 26.3327 28.9582C26.8954 28.3956 27.2114 27.6326 27.2114 26.8369V11.8369C27.2114 11.638 27.1324 11.4472 26.9918 11.3066C26.8511 11.1659 26.6603 11.0869 26.4614 11.0869ZM18.2114 13.3369C18.2114 13.138 18.2904 12.9472 18.4311 12.8066C18.5717 12.6659 18.7625 12.5869 18.9614 12.5869C19.1603 12.5869 19.3511 12.6659 19.4918 12.8066C19.6324 12.9472 19.7114 13.138 19.7114 13.3369V14.0869C19.7114 14.2858 19.6324 14.4766 19.4918 14.6172C19.3511 14.7579 19.1603 14.8369 18.9614 14.8369C18.7625 14.8369 18.5717 14.7579 18.4311 14.6172C18.2904 14.4766 18.2114 14.2858 18.2114 14.0869V13.3369ZM14.4614 14.8369C14.2625 14.8369 14.0717 14.7579 13.9311 14.6172C13.7904 14.4766 13.7114 14.2858 13.7114 14.0869V13.3369C13.7114 13.138 13.7904 12.9472 13.9311 12.8066C14.0717 12.6659 14.2625 12.5869 14.4614 12.5869C14.6603 12.5869 14.8511 12.6659 14.9918 12.8066C15.1324 12.9472 15.2114 13.138 15.2114 13.3369V14.0869C15.2114 14.2858 15.1324 14.4766 14.9918 14.6172C14.8511 14.7579 14.6603 14.8369 14.4614 14.8369ZM21.9614 23.8369H15.9614C15.7625 23.8369 15.5717 23.7579 15.4311 23.6172C15.2904 23.4766 15.2114 23.2858 15.2114 23.0869C15.2114 22.888 15.2904 22.6972 15.4311 22.5566C15.5717 22.4159 15.7625 22.3369 15.9614 22.3369H21.9614C22.1603 22.3369 22.3511 22.4159 22.4918 22.5566C22.6324 22.6972 22.7114 22.888 22.7114 23.0869C22.7114 23.2858 22.6324 23.4766 22.4918 23.6172C22.3511 23.7579 22.1603 23.8369 21.9614 23.8369ZM21.9614 20.8369H15.9614C15.7625 20.8369 15.5717 20.7579 15.4311 20.6172C15.2904 20.4766 15.2114 20.2858 15.2114 20.0869C15.2114 19.888 15.2904 19.6972 15.4311 19.5566C15.5717 19.4159 15.7625 19.3369 15.9614 19.3369H21.9614C22.1603 19.3369 22.3511 19.4159 22.4918 19.5566C22.6324 19.6972 22.7114 19.888 22.7114 20.0869C22.7114 20.2858 22.6324 20.4766 22.4918 20.6172C22.3511 20.7579 22.1603 20.8369 21.9614 20.8369ZM24.2114 14.0869C24.2114 14.2858 24.1324 14.4766 23.9918 14.6172C23.8511 14.7579 23.6603 14.8369 23.4614 14.8369C23.2625 14.8369 23.0717 14.7579 22.9311 14.6172C22.7904 14.4766 22.7114 14.2858 22.7114 14.0869V13.3369C22.7114 13.138 22.7904 12.9472 22.9311 12.8066C23.0717 12.6659 23.2625 12.5869 23.4614 12.5869C23.6603 12.5869 23.8511 12.6659 23.9918 12.8066C24.1324 12.9472 24.2114 13.138 24.2114 13.3369V14.0869Z" fill="white" fill-opacity="0.7"/>
</svg>
