<svg width="25" height="25" viewBox="0 0 25 25" fill="none" xmlns="http://www.w3.org/2000/svg">
<g clip-path="url(#clip0_36_1036)">
<path d="M19.3911 18.7866C19.4831 18.8959 19.5419 19.0293 19.5607 19.171C19.5794 19.3126 19.5573 19.4567 19.4969 19.5863C19.4366 19.7158 19.3404 19.8254 19.2199 19.9021C19.0993 19.9788 18.9593 20.0195 18.8164 20.0194H3.06641C2.92357 20.0193 2.78372 19.9785 2.6633 19.9017C2.54287 19.8249 2.44688 19.7153 2.38661 19.5858C2.32635 19.4563 2.30431 19.3123 2.3231 19.1707C2.34188 19.0291 2.40071 18.8959 2.49266 18.7866C3.89328 17.1197 5.63516 15.9356 7.57109 15.3019C6.39538 14.5696 5.49014 13.4743 4.99234 12.1818C4.49454 10.8892 4.43126 9.46966 4.81208 8.13793C5.19289 6.80619 5.99708 5.63471 7.10297 4.80073C8.20886 3.96674 9.55629 3.51562 10.9414 3.51562C12.3265 3.51562 13.6739 3.96674 14.7798 4.80073C15.8857 5.63471 16.6899 6.80619 17.0707 8.13793C17.4515 9.46966 17.3883 10.8892 16.8905 12.1818C16.3927 13.4743 15.4874 14.5696 14.3117 15.3019C16.2477 15.9356 17.9895 17.1197 19.3911 18.7866ZM24.7395 14.9569C24.6736 15.0711 24.5788 15.1658 24.4645 15.2317C24.3503 15.2975 24.2207 15.3321 24.0889 15.3319C23.9572 15.3323 23.8278 15.2977 23.7139 15.2316L23.2761 14.9784C23.0666 15.1582 22.8257 15.2977 22.5655 15.39V15.8944C22.5655 16.0933 22.4865 16.2841 22.3458 16.4247C22.2051 16.5654 22.0144 16.6444 21.8155 16.6444C21.6166 16.6444 21.4258 16.5654 21.2851 16.4247C21.1445 16.2841 21.0655 16.0933 21.0655 15.8944V15.39C20.8053 15.2977 20.5644 15.1582 20.3548 14.9784L19.917 15.2316C19.8031 15.2977 19.6737 15.3323 19.542 15.3319C19.3769 15.3319 19.2163 15.2775 19.0853 15.177C18.9542 15.0765 18.86 14.9355 18.8173 14.776C18.7745 14.6164 18.7857 14.4473 18.8489 14.2947C18.9121 14.1421 19.024 14.0147 19.167 13.9322L19.6039 13.68C19.5527 13.4086 19.5527 13.1301 19.6039 12.8587L19.167 12.6066C19.0817 12.5573 19.0069 12.4917 18.947 12.4136C18.887 12.3355 18.843 12.2463 18.8175 12.1511C18.792 12.056 18.7854 11.9567 18.7983 11.859C18.8111 11.7614 18.8431 11.6672 18.8923 11.5819C18.9416 11.4966 19.0072 11.4218 19.0853 11.3618C19.1635 11.3018 19.2526 11.2578 19.3478 11.2323C19.4429 11.2068 19.5422 11.2003 19.6399 11.2131C19.7375 11.226 19.8317 11.2579 19.917 11.3072L20.3548 11.5603C20.5644 11.3806 20.8053 11.241 21.0655 11.1487V10.6444C21.0655 10.4455 21.1445 10.2547 21.2851 10.114C21.4258 9.97339 21.6166 9.89437 21.8155 9.89437C22.0144 9.89437 22.2051 9.97339 22.3458 10.114C22.4865 10.2547 22.5655 10.4455 22.5655 10.6444V11.1487C22.8257 11.241 23.0666 11.3806 23.2761 11.5603L23.7139 11.3072C23.7992 11.2579 23.8934 11.226 23.9911 11.2131C24.0887 11.2003 24.188 11.2068 24.2831 11.2323C24.3783 11.2578 24.4675 11.3018 24.5456 11.3618C24.6238 11.4218 24.6893 11.4966 24.7386 11.5819C24.7878 11.6672 24.8198 11.7614 24.8326 11.859C24.8455 11.9567 24.839 12.056 24.8135 12.1511C24.788 12.2463 24.744 12.3355 24.684 12.4136C24.624 12.4917 24.5492 12.5573 24.4639 12.6066L24.027 12.8587C24.0783 13.1301 24.0783 13.4086 24.027 13.68L24.4639 13.9322C24.5493 13.9813 24.6242 14.0468 24.6843 14.125C24.7444 14.2031 24.7885 14.2922 24.8141 14.3874C24.8397 14.4826 24.8463 14.5819 24.8335 14.6796C24.8207 14.7773 24.7888 14.8715 24.7395 14.9569ZM21.8164 14.0194C21.9647 14.0194 22.1097 13.9754 22.2331 13.893C22.3564 13.8106 22.4525 13.6934 22.5093 13.5564C22.5661 13.4193 22.5809 13.2685 22.552 13.1231C22.5231 12.9776 22.4516 12.8439 22.3467 12.739C22.2418 12.6342 22.1082 12.5627 21.9627 12.5338C21.8172 12.5048 21.6664 12.5197 21.5294 12.5765C21.3923 12.6332 21.2752 12.7294 21.1928 12.8527C21.1104 12.976 21.0664 13.121 21.0664 13.2694C21.0664 13.4683 21.1454 13.6591 21.2861 13.7997C21.4267 13.9404 21.6175 14.0194 21.8164 14.0194Z" fill="white" fill-opacity="0.7"/>
</g>
<defs>
<clipPath id="clip0_36_1036">
<rect width="24" height="24" fill="white" transform="translate(0.816406 0.519531)"/>
</clipPath>
</defs>
</svg>
