<svg width="40" height="40" viewBox="0 0 40 40" fill="none" xmlns="http://www.w3.org/2000/svg">
<path d="M29.3306 29.5323C29.2647 29.6464 29.17 29.7411 29.056 29.8069C28.9419 29.8727 28.8126 29.9074 28.6809 29.9073H10.6809C10.5493 29.9072 10.42 29.8724 10.3061 29.8066C10.1922 29.7407 10.0977 29.646 10.0319 29.532C9.96619 29.418 9.93161 29.2887 9.93164 29.1571C9.93167 29.0256 9.96633 28.8963 10.0321 28.7823C11.4599 26.3139 13.6602 24.5439 16.2281 23.7048C14.9579 22.9487 13.9711 21.7965 13.4191 20.4253C12.8671 19.054 12.7806 17.5395 13.1727 16.1142C13.5648 14.689 14.4139 13.4319 15.5896 12.536C16.7654 11.64 18.2027 11.1548 19.6809 11.1548C21.1591 11.1548 22.5964 11.64 23.7721 12.536C24.9478 13.4319 25.7969 14.689 26.1891 16.1142C26.5812 17.5395 26.4946 19.054 25.9426 20.4253C25.3907 21.7965 24.4038 22.9487 23.1337 23.7048C25.7015 24.5439 27.9018 26.3139 29.3296 28.7823C29.3956 28.8963 29.4304 29.0256 29.4306 29.1572C29.4307 29.2889 29.3962 29.4182 29.3306 29.5323Z" fill="white" fill-opacity="0.7"/>
</svg>
