<svg width="25" height="25" viewBox="0 0 25 25" fill="none" xmlns="http://www.w3.org/2000/svg">
<path d="M21.5 12.5C21.5 12.6989 21.421 12.8897 21.2803 13.0303C21.1397 13.171 20.9489 13.25 20.75 13.25H4.25C4.05109 13.25 3.86032 13.171 3.71967 13.0303C3.57902 12.8897 3.5 12.6989 3.5 12.5C3.5 12.3011 3.57902 12.1103 3.71967 11.9697C3.86032 11.829 4.05109 11.75 4.25 11.75H20.75C20.9489 11.75 21.1397 11.829 21.2803 11.9697C21.421 12.1103 21.5 12.3011 21.5 12.5ZM4.25 7.25H20.75C20.9489 7.25 21.1397 7.17098 21.2803 7.03033C21.421 6.88968 21.5 6.69891 21.5 6.5C21.5 6.30109 21.421 6.11032 21.2803 5.96967C21.1397 5.82902 20.9489 5.75 20.75 5.75H4.25C4.05109 5.75 3.86032 5.82902 3.71967 5.96967C3.57902 6.11032 3.5 6.30109 3.5 6.5C3.5 6.69891 3.57902 6.88968 3.71967 7.03033C3.86032 7.17098 4.05109 7.25 4.25 7.25ZM20.75 17.75H4.25C4.05109 17.75 3.86032 17.829 3.71967 17.9697C3.57902 18.1103 3.5 18.3011 3.5 18.5C3.5 18.6989 3.57902 18.8897 3.71967 19.0303C3.86032 19.171 4.05109 19.25 4.25 19.25H20.75C20.9489 19.25 21.1397 19.171 21.2803 19.0303C21.421 18.8897 21.5 18.6989 21.5 18.5C21.5 18.3011 21.421 18.1103 21.2803 17.9697C21.1397 17.829 20.9489 17.75 20.75 17.75Z" fill="black" fill-opacity="0.5"/>
</svg>
